# AST/ASF file generated using VICON BodyLanguage
# -----------------------------------------------
:version 1.10
:name VICON
:units
  mass 1.0
  length 0.45
  angle deg
:documentation
   .ast/.asf automatically generated from VICON data using
   VICON BodyBuilder and BodyLanguage model FoxedUp or BRILLIANT.MOD
:root
   order TX TY TZ RX RY RZ
   axis XYZ
   position 0 0 0  
   orientation 0 0 0 
:bonedata
  begin
     id 1 
     name lhipjoint
     direction 0.660183 -0.676772 0.325788 
     length 2.75133 
     axis 0 0 0  XYZ
  end
  begin
     id 2 
     name lfemur
     direction 0.34202 -0.939693 0  
     length 7.70317  
     axis 0 0 20  XYZ
    dof rx ry rz
    limits (-160.0 20.0)
           (-70.0 70.0)
           (-60.0 70.0)
  end
  begin
     id 3 
     name ltibia
     direction 0.342105 -0.939662 0   
     length 7.18701   
     axis 0 0 20   XYZ
    dof rx
    limits (-10.0 170.0)
  end
  begin
     id 4 
     name lfoot
     direction 0.14163 -0.389126 0.910232   
     length 2.41719   
     axis -90 7.62852e-016 20   XYZ
    dof rx rz
    limits (-45.0 90.0)
           (-70.0 20.0)
  end
  begin
     id 5 
     name ltoes
     direction 1.53533e-011 -4.21926e-011 1   
     length 1.18611   
     axis -90 7.62852e-016 20   XYZ
    dof rx
    limits (-90.0 20.0)
  end
  begin
     id 6 
     name rhipjoint
     direction -0.6658 -0.67229 0.323631   
     length 2.76968  
     axis 0 0 0  XYZ 
  end
  begin
     id 7 
     name rfemur
     direction -0.34202 -0.939693 0   
     length 7.92547   
     axis 0 0 -20   XYZ
    dof rx ry rz
    limits (-160.0 20.0)
           (-70.0 70.0)
           (-70.0 60.0)
  end
  begin
     id 8 
     name rtibia
     direction -0.342022 -0.939692 0   
     length 7.22641   
     axis 0 0 -20   XYZ
    dof rx
    limits (-10.0 170.0)
 end
 begin
     id 9 
     name rfoot
     direction -0.105675 -0.29034 0.951071   
     length 2.48149  
     axis -90 -7.62852e-016 -20   XYZ
    dof rx rz
    limits (-45.0 90.0)
           (-20.0 70.0)
  end
  begin
     id 10 
     name rtoes
     direction -1.5349e-011 -4.21859e-011 1   
     length 1.23343   
     axis -90 -7.62852e-016 -20   XYZ
    dof rx
    limits (-90.0 20.0)
  end
  begin
     id 11 
     name lowerback
     direction 0.0104173 0.993624 -0.112266   
     length 2.00527   
     axis 0 0 0   XYZ
    dof rx ry rz
    limits (-20.0 45.0)
           (-30.0 30.0)
           (-30.0 30.0)
  end
  begin
     id 12 
     name upperback
     direction 0.00733149 0.999856 -0.0152913   
     length 2.01385   
     axis 0 0 0   XYZ
    dof rx ry rz
    limits (-20.0 45.0)
           (-30.0 30.0)
           (-30.0 30.0)
  end
  begin
     id 13 
     name thorax
     direction 0.0026304 0.999318 0.036841   
     length 2.03734   
     axis 0 0 0   XYZ
    dof rx ry rz
    limits (-20.0 45.0)
           (-30.0 30.0)
           (-30.0 30.0)
  end
  begin
     id 14 
     name lowerneck
     direction 0.0293154 0.998757 0.0403082   
     length 1.65303   
     axis 0 0 0   XYZ
    dof rx ry rz
    limits (-20.0 45.0)
           (-30.0 30.0)
           (-30.0 30.0)
  end
  begin
     id 15 
     name upperneck
     direction -0.0376619 0.998184 -0.0470083   
     length 1.60926   
     axis 0 0 0   XYZ
    dof rx ry rz
    limits (-20.0 45.0)
           (-30.0 30.0)
           (-30.0 30.0)
  end
  begin
     id 16
     name head
     direction -0.0170133 0.999635 -0.0209778  
     length 1.73625  
     axis 0 0 0   XYZ
    dof rx ry rz
    limits (-20.0 45.0)
           (-30.0 30.0)
           (-30.0 30.0)
  end
  begin
     id 17 
     name lclavicle
     direction 0.919857 0.39181 -0.0186333  
     length 3.75313  
     axis 0 0 0   XYZ
    dof ry rz
    limits (-20.0 10.0)
           (0.0 20.0)
  end
  begin
     id 18 
     name lhumerus
     direction 1 -4.48988e-011 1.44029e-027   
     length 5.49313   
     axis 180 -30 -90   XYZ
    dof rx ry rz
    limits (-60.0 90.0)
           (-90.0 90.0)
           (-90.0 90.0)
  end
  begin
     id 19
     name lradius
     direction 1 -4.48924e-011 7.46281e-027   
     length 3.29037   
     axis 180 -30 -90   XYZ
    dof rx
    limits (-10.0 170.0)
  end
  begin
     id 20
     name lwrist
     direction 1 -4.48955e-011 2.19879e-026   
     length 1.64519   
     axis -1.34358e-014 90 90   XYZ
    dof ry
    limits (-180.0 0.0)
 end
  begin
     id 21 
     name lhand
     direction 1 -4.48978e-011 4.39747e-026   
     length 0.729656   
     axis -2.80598e-014 90 90   XYZ
    dof rx rz
    limits (-90.0 90.0)
           (-45.0 45.0)
  end
  begin
     id 22 
     name lfingers
     direction 1 -4.49071e-011 8.79411e-026   
     length 0.588268   
     axis -5.61193e-014 90 90   XYZ
    dof rx
    limits (0.0 90.0)
  end
  begin
     id 23
     name lthumb
     direction 0.707107 -6.34817e-011 0.707107   
     length 0.844638   
     axis -90 45 -9.86923e-015   XYZ
    dof rx rz
    limits (-45.0 45.0)
           (-45.0 45.0)
  end
  begin
     id 24 
     name rclavicle
     direction -0.919898 0.388279 0.0550233   
     length 3.7171  
     axis 0 0 0   XYZ 
    dof ry rz
    limits (-10.0 20.0)
           (-20.0 0.0)
  end
  begin
     id 25 
     name rhumerus
     direction -1 -4.48968e-011 9.98372e-028  
     length 5.23684   
     axis 180 30 90   XYZ
    dof rx ry rz
    limits (-90.0 60.0)
           (-90.0 90.0)
           (-90.0 90.0)
  end
  begin
     id 26 
     name rradius
     direction -1 -4.48956e-011 1.01023e-026   
     length 3.38251   
     axis 180 30 90   XYZ
    dof rx
    limits (-10.0 170.0)
  end
  begin
     id 27 
     name rwrist
     direction -1 -4.4892e-011 2.19886e-026   
     length 1.69126   
     axis -1.34358e-014 -90 -90   XYZ
    dof ry
    limits (-180.0 0.0)
  end
  begin
     id 28
     name rhand
     direction -1 -4.49024e-011 4.39727e-026   
     length 0.691454   
     axis -2.80598e-014 -90 -90   XYZ
    dof rx rz
    limits (-90.0 90.0)
           (-45.0 45.0)
  end
  begin
     id 29
     name rfingers
     direction -1 -4.49097e-011 8.79388e-026   
     length 0.557468   
     axis -5.61193e-014 -90 -90   XYZ
    dof rx
    limits (0.0 90.0)
  end
  begin
     id 30
     name rthumb
     direction -0.707107 -6.34938e-011 0.707107   
     length 0.800416   
     axis -90 -45 9.86923e-015   XYZ
    dof rx rz
    limits (-45.0 45.0)
           (-45.0 45.0)
  end
:hierarchy
  begin
    root lhipjoint rhipjoint lowerback
    lhipjoint lfemur
    lfemur ltibia
    ltibia lfoot
    lfoot ltoes
    rhipjoint rfemur
    rfemur rtibia
    rtibia rfoot
    rfoot rtoes
    lowerback upperback
    upperback thorax
    thorax lowerneck lclavicle rclavicle
    lowerneck upperneck
    upperneck head
    lclavicle lhumerus
    lhumerus lradius
    lradius lwrist
    lwrist lhand lthumb
    lhand lfingers
    rclavicle rhumerus
    rhumerus rradius
    rradius rwrist
    rwrist rhand rthumb
    rhand rfingers
  end

#!OML:ASF H:\BabyWalks\Project 1\Capture day 1\Session 1\baby.ASF
:FULLY-SPECIFIED
:DEGREES
171
root -38.9084 17.3443 -2.236 -39.1481 83.7956 -47.3552
lowerback 15.3751 -0.371068 -2.47529
upperback 2.41665 -0.904083 -2.09012
thorax -6.04402 -0.353331 -0.635051
lowerneck -5.31104 1.47992 -0.55878
upperneck -11.141 2.53395 2.6907
head -2.67559 1.35471 0.929876
rclavicle 2.10712e-014 -1.43125e-014
rhumerus -51.3018 13.141 -91.9446
rradius 46.7743
rwrist -0.758277
rhand -5.8993 -16.2536
rfingers 7.12502
rthumb 19.9292 -45.2518
lclavicle 2.10712e-014 -1.43125e-014
lhumerus -50.9931 -1.7076 76.8222
lradius 45.3267
lwrist 1.22452
lhand -3.73246 6.02228
lfingers 7.12502
lthumb 22.0109 34.7898
rfemur 6.6203 7.94919 27.4245
rtibia 8.18799
rfoot -14.0072 -12.5518
rtoes -31.1345
lfemur -28.2604 -5.36512 -10.8026
ltibia 41.7584
lfoot -25.8931 -13.9557
ltoes 5.98034
172
root -38.8308 17.3352 -2.23791 -38.5531 83.8036 -46.9055
lowerback 15.3868 -0.350372 -2.84575
upperback 2.43976 -0.943457 -2.26872
thorax -6.02235 -0.364371 -0.60724
lowerneck -5.58489 1.45058 -0.745843
upperneck -11.119 2.54109 3.10143
head -2.63136 1.36214 1.09639
rclavicle 9.54166e-015 -3.33958e-014
rhumerus -51.4972 13.6732 -92.3031
rradius 46.9943
rwrist -1.11238
rhand -5.57368 -16.2811
rfingers 7.12502
rthumb 20.2421 -45.2463
lclavicle 9.54166e-015 -3.33958e-014
lhumerus -50.7363 -1.71164 76.5595
lradius 45.2674
lwrist 1.00011
lhand -3.58174 5.86743
lfingers 7.12502
lthumb 22.1556 34.6179
rfemur 6.90256 7.86413 27.3238
rtibia 7.83911
rfoot -14.096 -12.338
rtoes -31.2606
lfemur -28.211 -5.26771 -10.8982
ltibia 41.9444
lfoot -26.2447 -14.0428
ltoes 6.04915
173
root -38.7541 17.3247 -2.24114 -38.0351 83.825 -46.5261
lowerback 15.3698 -0.330442 -3.28808
upperback 2.50622 -0.986702 -2.37631
thorax -5.93559 -0.37597 -0.462988
lowerneck -5.88001 1.42487 -0.985947
upperneck -11.1291 2.552 3.44438
head -2.59428 1.3761 1.25084
rclavicle -6.36111e-015 -4.77083e-015
rhumerus -51.6132 14.2981 -92.5468
rradius 47.2185
rwrist -1.50773
rhand -5.28051 -16.2997
rfingers 7.12502
rthumb 20.5239 -45.2348
lclavicle -6.36111e-015 -4.77083e-015
lhumerus -50.4065 -1.62169 76.3887
lradius 45.2557
lwrist 0.79675
lhand -3.43985 5.71548
lfingers 7.12502
lthumb 22.2918 34.4497
rfemur 7.12905 7.76364 27.2092
rtibia 7.62329
rfoot -14.2301 -12.1539
rtoes -31.3965
lfemur -28.1783 -5.21158 -11.0041
ltibia 42.1663
lfoot -26.6115 -14.0923
ltoes 6.10026
174
root -38.6783 17.3119 -2.24471 -37.6629 83.8046 -46.2815
lowerback 15.4164 -0.322461 -3.65162
upperback 2.55183 -1.03772 -2.497
thorax -5.90704 -0.392623 -0.375549
lowerneck -6.15938 1.40497 -1.2058
upperneck -11.1227 2.56938 3.78429
head -2.55466 1.3927 1.40125
rclavicle -1.82882e-014 7.95139e-015
rhumerus -51.7409 14.902 -92.8142
rradius 47.4356
rwrist -1.90247
rhand -5.02259 -16.312
rfingers 7.12502
rthumb 20.7717 -45.2202
lclavicle -1.82882e-014 7.95139e-015
lhumerus -50.1041 -1.55312 76.1895
lradius 45.3177
lwrist 0.656651
lhand -3.32235 5.59141
lfingers 7.12502
lthumb 22.4046 34.3121
rfemur 7.30956 7.6846 27.1384
rtibia 7.53854
rfoot -14.3847 -12.0081
rtoes -31.5988
lfemur -28.1565 -5.15062 -11.0663
ltibia 42.4349
lfoot -27.001 -14.1164
ltoes 6.13915
175
root -38.603 17.2976 -2.24936 -37.3547 83.7703 -46.0894
lowerback 15.4772 -0.315759 -4.00817
upperback 2.60662 -1.08805 -2.59295
thorax -5.87556 -0.40909 -0.266018
lowerneck -6.43062 1.38684 -1.43259
upperneck -11.1229 2.58745 4.08894
head -2.51847 1.41092 1.54202
rclavicle -1.03368e-014 2.8625e-014
rhumerus -51.8371 15.5093 -93.0269
rradius 47.6419
rwrist -2.31594
rhand -4.7998 -16.3355
rfingers 7.12502
rthumb 20.9858 -45.2201
lclavicle -1.03368e-014 2.8625e-014
lhumerus -49.7853 -1.45826 76.0206
lradius 45.4403
lwrist 0.566195
lhand -3.22718 5.50214
lfingers 7.12502
lthumb 22.4959 34.2118
rfemur 7.43989 7.61198 27.0775
rtibia 7.5941
rfoot -14.5532 -11.9022
rtoes -31.8978
lfemur -28.1383 -5.09418 -11.1195
ltibia 42.7424
lfoot -27.4119 -14.1227
ltoes 6.17775
176
root -38.5289 17.282 -2.255 -37.3 83.6951 -46.1495
lowerback 15.5945 -0.316742 -4.26123
upperback 2.63188 -1.13861 -2.70493
thorax -5.90848 -0.426955 -0.231623
lowerneck -6.65576 1.37036 -1.60995
upperneck -11.1125 2.60357 4.38116
head -2.48583 1.4259 1.67039
rclavicle 1.43125e-014 -7.95139e-015
rhumerus -51.9478 16.0406 -93.2512
rradius 47.8245
rwrist -2.72509
rhand -4.61571 -16.3636
rfingers 7.12502
rthumb 21.1626 -45.2285
lclavicle 1.43125e-014 -7.95139e-015
lhumerus -49.4993 -1.40714 75.8185
lradius 45.6275
lwrist 0.533857
lhand -3.15941 5.44261
lfingers 7.12502
lthumb 22.561 34.1444
rfemur 7.49051 7.55464 27.065
rtibia 7.80744
rfoot -14.725 -11.8299
rtoes -32.2981
lfemur -28.1424 -5.05349 -11.1196
ltibia 43.0873
lfoot -27.8281 -14.0959
ltoes 6.21616
177
root -38.4539 17.2657 -2.26102 -36.9442 83.5416 -45.8929
lowerback 15.6476 -0.278878 -4.5726
upperback 2.70105 -1.1373 -2.75037
thorax -5.85784 -0.419738 -0.104575
lowerneck -6.88648 1.35465 -1.82096
upperneck -11.1284 2.61989 4.61669
head -2.46065 1.4438 1.78674
rclavicle -7.95139e-016 1.11319e-014
rhumerus -51.9646 16.5875 -93.3437
rradius 47.9762
rwrist -3.15917
rhand -4.46192 -16.4016
rfingers 7.12502
rthumb 21.3103 -45.2499
lclavicle -7.95139e-016 1.11319e-014
lhumerus -49.1473 -1.27053 75.6865
lradius 45.8506
lwrist 0.521514
lhand -3.11942 5.39318
lfingers 7.12502
lthumb 22.5994 34.0903
rfemur 7.45474 7.57811 27.0786
rtibia 8.24553
rfoot -14.9451 -11.7987
rtoes -32.7461
lfemur -28.1045 -4.909 -11.0974
ltibia 43.4489
lfoot -28.2708 -14.0935
ltoes 6.29391
178
root -38.3794 17.2493 -2.26775 -36.6714 83.3276 -45.7178
lowerback 15.7357 -0.241998 -4.80121
upperback 2.75159 -1.12844 -2.80312
thorax -5.84829 -0.410062 -0.0333414
lowerneck -7.10295 1.34479 -2.00434
upperneck -11.1234 2.64154 4.85149
head -2.43085 1.46313 1.89832
rclavicle -2.06736e-014 -1.27222e-014
rhumerus -51.9622 17.0644 -93.4249
rradius 48.0895
rwrist -3.5785
rhand -4.32776 -16.457
rfingers 7.12502
rthumb 21.4392 -45.2907
lclavicle -2.06736e-014 -1.27222e-014
lhumerus -48.8164 -1.13245 75.5171
lradius 46.131
lwrist 0.553951
lhand -3.10137 5.36289
lfingers 7.12502
lthumb 22.6167 34.0579
rfemur 7.28386 7.64441 27.1366
rtibia 8.95172
rfoot -15.2379 -11.7925
rtoes -33.1741
lfemur -28.0608 -4.74004 -11.0247
ltibia 43.8138
lfoot -28.7062 -14.0743
ltoes 6.38251
179
root -38.3052 17.2343 -2.27597 -36.3627 83.0935 -45.5102
lowerback 15.8447 -0.206205 -4.96605
upperback 2.78112 -1.11538 -2.87779
thorax -5.87465 -0.39905 -0.0221739
lowerneck -7.27041 1.33616 -2.13654
upperneck -11.113 2.66011 5.07558
head -2.40657 1.47825 1.9974
rclavicle -1.03368e-014 -5.24792e-014
rhumerus -51.9399 17.4345 -93.4907
rradius 48.1531
rwrist -3.97274
rhand -4.22072 -16.5192
rfingers 7.12502
rthumb 21.542 -45.3412
lclavicle -1.03368e-014 -5.24792e-014
lhumerus -48.5058 -1.02119 75.3154
lradius 46.4598
lwrist 0.631366
lhand -3.11484 5.34896
lfingers 7.12502
lthumb 22.6037 34.0455
rfemur 6.95867 7.73118 27.1868
rtibia 9.95127
rfoot -15.6373 -11.7823
rtoes -33.5126
lfemur -28.0025 -4.57218 -10.9489
ltibia 44.1562
lfoot -29.1244 -14.0328
ltoes 6.4831
180
root -38.2312 17.2213 -2.28449 -36.092 82.8123 -45.3349
lowerback 15.9654 -0.157609 -5.0787
upperback 2.80032 -1.07939 -2.95637
thorax -5.92047 -0.377625 -0.0493302
lowerneck -7.37542 1.32799 -2.21358
upperneck -11.1134 2.6741 5.27956
head -2.39512 1.4881 2.07993
rclavicle -7.15625e-015 -3.02153e-014
rhumerus -51.8795 17.685 -93.5202
rradius 48.1633
rwrist -4.32416
rhand -4.1331 -16.5933
rfingers 7.12502
rthumb 21.6261 -45.4057
lclavicle -7.15625e-015 -3.02153e-014
lhumerus -48.2044 -0.937608 75.0962
lradius 46.8342
lwrist 0.755833
lhand -3.17664 5.39045
lfingers 7.12502
lthumb 22.5444 34.0942
rfemur 6.48509 7.85359 27.261
rtibia 11.2307
rfoot -16.1456 -11.7188
rtoes -33.6524
lfemur -27.9141 -4.38779 -10.8373
ltibia 44.4647
lfoot -29.5199 -13.9714
ltoes 6.58554
181
root -38.1574 17.211 -2.29412 -35.7113 82.5301 -45.05
lowerback 16.0799 -0.101398 -5.17906
upperback 2.81588 -1.03193 -3.04111
thorax -5.96755 -0.35086 -0.0926047
lowerneck -7.41814 1.31942 -2.24056
upperneck -11.1319 2.68231 5.45538
head -2.39875 1.4923 2.14401
rclavicle -7.95139e-016 1.43125e-014
rhumerus -51.773 17.8274 -93.4977
rradius 48.1277
rwrist -4.62961
rhand -4.0791 -16.6792
rfingers 7.12502
rthumb 21.678 -45.4856
lclavicle -7.95139e-016 1.43125e-014
lhumerus -47.9003 -0.869679 74.8745
lradius 47.2455
lwrist 0.923278
lhand -3.27951 5.45084
lfingers 7.12502
lthumb 22.4457 34.1666
rfemur 5.86459 7.63884 27.2614
rtibia 12.764
rfoot -16.8469 -11.2855
rtoes -33.7195
lfemur -27.7957 -4.21716 -10.7451
ltibia 44.7209
lfoot -29.8818 -13.8826
ltoes 6.69501
